<svg xmlns="http://www.w3.org/2000/svg" width="20" height="20" viewBox="0 0 48 48"><g><path fill="#4285F4" d="M44.5 20H24v8.5h11.7C34.7 33.1 30.1 36 24 36c-6.6 0-12-5.4-12-12s5.4-12 12-12c2.6 0 5 .8 7 2.3l6.4-6.4C33.5 6.1 28.9 4 24 4 12.9 4 4 12.9 4 24s8.9 20 20 20c11 0 19.7-8 19.7-20 0-1.3-.1-2.7-.2-4z"/><path fill="#34A853" d="M6.3 14.7l7 5.1C15.5 16.1 19.4 13 24 13c2.6 0 5 .8 7 2.3l6.4-6.4C33.5 6.1 28.9 4 24 4c-7.7 0-14.3 4.4-17.7 10.7z"/><path fill="#FBBC05" d="M24 44c5.9 0 10.8-1.9 14.4-5.1l-6.6-5.4C29.7 35.7 27 36.5 24 36.5c-6.1 0-10.7-3.9-12.5-9.1l-7 5.4C7.7 39.6 15.2 44 24 44z"/><path fill="#EA4335" d="M44.5 20H24v8.5h11.7c-1.1 3.1-4.1 5.5-7.7 5.5-2.6 0-5-.8-7-2.3l-6.4 6.4C14.5 41.9 19.1 44 24 44c8.8 0 16.3-4.4 19.7-10.7l-7-5.4C38.7 35.7 34.1 36.5 24 36.5c-6.1 0-10.7-3.9-12.5-9.1l-7 5.4C7.7 39.6 15.2 44 24 44z"/></g></svg>
